<svg width="96" height="96" viewBox="0 0 96 96" fill="none" xmlns="http://www.w3.org/2000/svg">
<g clip-path="url(#clip0_2393_1765)">
<mask id="mask0_2393_1765" style="mask-type:alpha" maskUnits="userSpaceOnUse" x="0" y="0" width="96" height="96">
<path d="M0 48C0 52.2526 2.94943 55.8163 6.91426 56.7571C10.3435 72.9251 23.0749 85.6565 39.2429 89.0857C40.1837 93.0506 43.7474 96 48 96C52.2526 96 55.8163 93.0506 56.7571 89.0857C72.9251 85.6565 85.6565 72.9252 89.0857 56.7571C93.0506 55.8163 96 52.2526 96 48.0001C96 43.7475 93.0506 40.1838 89.0858 39.243C85.6566 23.0749 72.9252 10.3435 56.7571 6.91426C55.8163 2.94943 52.2526 0 48 0C43.7474 0 40.1837 2.94943 39.2429 6.91426C23.0749 10.3435 10.3435 23.0749 6.91426 39.2429C2.94943 40.1837 0 43.7474 0 48Z" fill="white"/>
</mask>
<g mask="url(#mask0_2393_1765)">
<circle cx="48" cy="48" r="48" fill="url(#paint0_linear_2393_1765)"/>
<path fill-rule="evenodd" clip-rule="evenodd" d="M52 17.0645C54.9634 15.5918 57 12.5337 57 9C57 4.02944 52.9706 0 48 0C43.0294 0 39 4.02944 39 9C39 12.5337 41.0366 15.5918 44 17.0645V23H52V17.0645Z" fill="#9DF3F9"/>
<path fill-rule="evenodd" clip-rule="evenodd" d="M44 78.9355C41.0366 80.4082 39 83.4663 39 87C39 91.9706 43.0294 96 48 96C52.9706 96 57 91.9706 57 87C57 83.4663 54.9634 80.4082 52 78.9355L52 73L44 73L44 78.9355Z" fill="#82EBF1"/>
<path fill-rule="evenodd" clip-rule="evenodd" d="M17.0645 44C15.5918 41.0366 12.5337 39 9 39C4.02944 39 -6.10673e-07 43.0294 -3.93402e-07 48C-1.76132e-07 52.9706 4.02944 57 9 57C12.5337 57 15.5918 54.9634 17.0645 52L23 52L23 44L17.0645 44Z" fill="#9DF3F9"/>
<g filter="url(#filter0_dd_2393_1765)">
<circle cx="48" cy="48" r="26" fill="url(#paint1_linear_2393_1765)"/>
<path fill-rule="evenodd" clip-rule="evenodd" d="M59.3172 52.0001C57.6698 56.6608 53.2249 60.0001 48 60.0001C41.3726 60.0001 36 54.6275 36 48.0001C36 41.3726 41.3726 36.0001 48 36.0001C53.2249 36.0001 57.6698 39.3393 59.3172 44.0001H80V52.0001H59.3172Z" fill="url(#paint2_linear_2393_1765)"/>
<path d="M87 57.0001C82.0294 57.0001 78 52.9706 78 48.0001C78 43.0295 82.0294 39.0001 87 39.0001C91.9706 39.0001 96 43.0295 96 48.0001C96 52.9706 91.9706 57.0001 87 57.0001Z" fill="url(#paint3_linear_2393_1765)"/>
</g>
</g>
</g>
<defs>
<filter id="filter0_dd_2393_1765" x="14" y="16" width="90" height="68" filterUnits="userSpaceOnUse" color-interpolation-filters="sRGB">
<feFlood flood-opacity="0" result="BackgroundImageFix"/>
<feColorMatrix in="SourceAlpha" type="matrix" values="0 0 0 0 0 0 0 0 0 0 0 0 0 0 0 0 0 0 127 0" result="hardAlpha"/>
<feOffset dy="0.4"/>
<feGaussianBlur stdDeviation="0.4"/>
<feColorMatrix type="matrix" values="0 0 0 0 0 0 0 0 0 0 0 0 0 0 0 0 0 0 0.24 0"/>
<feBlend mode="normal" in2="BackgroundImageFix" result="effect1_dropShadow_2393_1765"/>
<feColorMatrix in="SourceAlpha" type="matrix" values="0 0 0 0 0 0 0 0 0 0 0 0 0 0 0 0 0 0 127 0" result="hardAlpha"/>
<feOffset dy="2"/>
<feGaussianBlur stdDeviation="4"/>
<feColorMatrix type="matrix" values="0 0 0 0 0 0 0 0 0 0 0 0 0 0 0 0 0 0 0.32 0"/>
<feBlend mode="normal" in2="effect1_dropShadow_2393_1765" result="effect2_dropShadow_2393_1765"/>
<feBlend mode="normal" in="SourceGraphic" in2="effect2_dropShadow_2393_1765" result="shape"/>
</filter>
<linearGradient id="paint0_linear_2393_1765" x1="22.7027" y1="11.3514" x2="72.6487" y2="84.6487" gradientUnits="userSpaceOnUse">
<stop stop-color="#009CA8"/>
<stop offset="1" stop-color="#007D85"/>
</linearGradient>
<linearGradient id="paint1_linear_2393_1765" x1="31.7838" y1="26.2703" x2="66.1622" y2="83.3514" gradientUnits="userSpaceOnUse">
<stop stop-color="#36E3EE"/>
<stop offset="1" stop-color="#00B1BE"/>
</linearGradient>
<linearGradient id="paint2_linear_2393_1765" x1="31.1352" y1="24" x2="75.2433" y2="63.5676" gradientUnits="userSpaceOnUse">
<stop stop-color="#D2F6F9"/>
<stop offset="1" stop-color="#82EBF1"/>
<stop offset="1" stop-color="#82EBF1"/>
</linearGradient>
<linearGradient id="paint3_linear_2393_1765" x1="96.9731" y1="50.9189" x2="72.3244" y2="42.1621" gradientUnits="userSpaceOnUse">
<stop stop-color="#9AEEF3"/>
<stop offset="1" stop-color="#82EBF1"/>
</linearGradient>
<clipPath id="clip0_2393_1765">
<rect width="96" height="96" fill="white"/>
</clipPath>
</defs>
</svg>
