<svg width="477" height="472" viewBox="0 0 477 472" fill="none" xmlns="http://www.w3.org/2000/svg">
<mask id="mask0_2_6" style="mask-type:alpha" maskUnits="userSpaceOnUse" x="55" y="47" width="360" height="360">
<circle cx="235" cy="227" r="180" fill="white"/>
</mask>
<g mask="url(#mask0_2_6)">
<circle cx="235" cy="227" r="180" fill="#AFC7DF"/>
<path d="M256 102.5C270 102.5 297.5 96.5 315 72.5001L340 33L443 132L393.5 154.5C367.5 170.5 371 204 315 178C310 166 320.5 152 297.5 143C280 152 284 154.5 258.5 152C243.5 144 246.5 108.5 256 102.5Z" fill="#D0DEC4" stroke="black" stroke-width="16"/>
<path d="M165 102.5C133.51 131.164 120.5 132.5 88.4999 132.5H20.5V320H88.4999C112 310 142.346 320.316 156.5 326C167.65 314.081 187.371 292.051 183 277C179.5 271 165.7 265.072 165 257.5C166.5 252 192.5 227.5 191.5 214.5C187 207 162 201 172.5 183.5C187 176.5 205.5 171.5 216 141.5C204 121 197.905 111.762 165 102.5Z" fill="#D0DEC4" stroke="black" stroke-width="16"/>
<path d="M234 323C212.124 339.157 192.539 347.733 214 398.5L225.5 424.5L341.5 407.5L322.5 375.5C318.844 365.309 310.832 339.377 327.5 308.5C316.608 291.99 306.754 281.935 285 286.5C274.648 296.902 268.729 309.464 270.5 328.5C259.843 336.988 249.427 337.448 234 323Z" fill="#D0DEC4" stroke="black" stroke-width="16"/>
<circle cx="235" cy="227" r="173" stroke="black" stroke-width="14"/>
</g>
<path d="M33.5 249.5C11.0015 266.022 1.02107 281.784 3.17507 295.853C5.32907 309.923 20.358 321.218 46.4861 328.403C72.6142 335.589 108.75 338.365 150.623 336.403C192.496 334.442 238.357 327.825 282.787 317.334C327.218 306.843 368.36 292.917 401.355 277.201C434.349 261.485 457.816 244.636 468.982 228.645C480.149 212.653 478.549 198.188 464.371 186.957C451.772 176.977 432.624 168.539 403.93 164.723L410.301 186C432.92 189.79 444.403 196.655 451.952 202.635C456.009 205.848 456.257 207.808 456.302 208.215C456.379 208.912 456.397 211.734 452.584 217.194C444.474 228.81 424.918 243.825 392.754 259.145C361.311 274.122 321.566 287.628 278.191 297.869C234.857 308.101 190.223 314.527 149.687 316.425C108.898 318.336 75.0947 315.529 51.7894 309.119C40.1265 305.912 32.4353 302.163 27.856 298.722C23.4352 295.399 23.0134 293.275 22.9447 292.827C22.853 292.227 22.6918 289.642 26.1617 284.424C29.0367 280.101 37.2727 271.341 44.5 265.5L33.5 249.5Z" fill="#2266E3"/>
<path fill-rule="evenodd" clip-rule="evenodd" d="M154.948 243.629C162.873 230.838 167.452 215.738 167.452 199.567C167.452 153.415 130.166 116.002 84.1728 116.002C38.1791 116.002 0.893799 153.415 0.893799 199.567C0.893799 215.738 5.47152 230.838 13.3976 243.629H13.3621L13.8553 244.36C14.724 245.73 15.6315 247.072 16.576 248.387L84.1724 348.465L151.759 248.402C152.711 247.078 153.624 245.725 154.5 244.345L154.983 243.629H154.948Z" fill="white"/>
<path fill-rule="evenodd" clip-rule="evenodd" d="M143.566 237.51C150.18 226.835 154 214.234 154 200.739C154 162.223 122.884 131 84.5001 131C46.1164 131 15 162.223 15 200.739C15 214.234 18.8204 226.835 25.435 237.51H25.4053L25.8159 238.118C26.5416 239.263 27.2996 240.385 28.0888 241.482L84.4999 325L140.904 241.493C141.699 240.389 142.461 239.259 143.191 238.108L143.594 237.51H143.566Z" fill="#2266E3"/>
<path fill-rule="evenodd" clip-rule="evenodd" d="M47.9358 177.605L83.7035 156.548L120.206 178.33L84.4382 199.386L47.9358 177.605ZM88.9245 208.792L124.206 186.925V230.138L88.9245 252.004V208.792ZM80.6233 208.792L45.3415 186.925V230.138L80.6233 252.004V208.792Z" fill="white"/>
</svg>
